<?xml version="1.0" encoding="UTF-8" standalone="no"?>
<!DOCTYPE svg PUBLIC "-//W3C//DTD SVG 1.1//EN"
 "http://www.w3.org/Graphics/SVG/1.1/DTD/svg11.dtd">
<!-- Generated by graphviz version 7.0.1 (20221109.1506)
 -->
<!-- Title: StockV2 Pages: 1 -->
<svg width="473pt" height="416pt"
 viewBox="0.00 0.00 472.60 415.60" xmlns="http://www.w3.org/2000/svg" xmlns:xlink="http://www.w3.org/1999/xlink">
<g id="graph0" class="graph" transform="scale(1 1) rotate(0) translate(28.8 386.8)">
<title>StockV2</title>
<polygon fill="white" stroke="none" points="-28.8,28.8 -28.8,-386.8 443.8,-386.8 443.8,28.8 -28.8,28.8"/>
<!-- m_DailyQuote -->
<g id="node1" class="node">
<title>m_DailyQuote</title>
<path fill="none" stroke="black" d="M12,-0.5C12,-0.5 140,-0.5 140,-0.5 146,-0.5 152,-6.5 152,-12.5 152,-12.5 152,-226.5 152,-226.5 152,-232.5 146,-238.5 140,-238.5 140,-238.5 12,-238.5 12,-238.5 6,-238.5 0,-232.5 0,-226.5 0,-226.5 0,-12.5 0,-12.5 0,-6.5 6,-0.5 12,-0.5"/>
<text text-anchor="start" x="47" y="-225.7" font-family="Arial BoldMT" font-size="11.00">DailyQuote</text>
<polyline fill="none" stroke="black" points="0,-218.5 152,-218.5"/>
<text text-anchor="start" x="7" y="-205.5" font-family="ArialMT" font-size="10.00">closing_price </text>
<text text-anchor="start" x="68" y="-205.5" font-family="Arial ItalicMT" font-size="10.00" fill="#999999">float</text>
<text text-anchor="start" x="7" y="-192.5" font-family="ArialMT" font-size="10.00">deleted_at </text>
<text text-anchor="start" x="56" y="-192.5" font-family="Arial ItalicMT" font-size="10.00" fill="#999999">datetime (6,0)</text>
<text text-anchor="start" x="7" y="-179.5" font-family="ArialMT" font-size="10.00">highest_price </text>
<text text-anchor="start" x="68" y="-179.5" font-family="Arial ItalicMT" font-size="10.00" fill="#999999">float</text>
<text text-anchor="start" x="7" y="-166.5" font-family="ArialMT" font-size="10.00">last_best_ask_price </text>
<text text-anchor="start" x="98" y="-166.5" font-family="Arial ItalicMT" font-size="10.00" fill="#999999">float</text>
<text text-anchor="start" x="7" y="-153.5" font-family="ArialMT" font-size="10.00">last_best_ask_volume </text>
<text text-anchor="start" x="108" y="-153.5" font-family="Arial ItalicMT" font-size="10.00" fill="#999999">integer</text>
<text text-anchor="start" x="7" y="-140.5" font-family="ArialMT" font-size="10.00">last_best_bid_price </text>
<text text-anchor="start" x="95" y="-140.5" font-family="Arial ItalicMT" font-size="10.00" fill="#999999">float</text>
<text text-anchor="start" x="7" y="-127.5" font-family="ArialMT" font-size="10.00">last_best_bid_volume </text>
<text text-anchor="start" x="105" y="-127.5" font-family="Arial ItalicMT" font-size="10.00" fill="#999999">integer</text>
<text text-anchor="start" x="7" y="-114.5" font-family="ArialMT" font-size="10.00">lowest_price </text>
<text text-anchor="start" x="65" y="-114.5" font-family="Arial ItalicMT" font-size="10.00" fill="#999999">float</text>
<text text-anchor="start" x="7" y="-101.5" font-family="ArialMT" font-size="10.00">number_of_transactions </text>
<text text-anchor="start" x="115" y="-101.5" font-family="Arial ItalicMT" font-size="10.00" fill="#999999">integer</text>
<text text-anchor="start" x="7" y="-88.5" font-family="ArialMT" font-size="10.00">opening_price </text>
<text text-anchor="start" x="71" y="-88.5" font-family="Arial ItalicMT" font-size="10.00" fill="#999999">float</text>
<text text-anchor="start" x="7" y="-75.5" font-family="ArialMT" font-size="10.00">price_difference </text>
<text text-anchor="start" x="80" y="-75.5" font-family="Arial ItalicMT" font-size="10.00" fill="#999999">float</text>
<text text-anchor="start" x="7" y="-62.5" font-family="ArialMT" font-size="10.00">price_earning_ratio </text>
<text text-anchor="start" x="92" y="-62.5" font-family="Arial ItalicMT" font-size="10.00" fill="#999999">float</text>
<text text-anchor="start" x="7" y="-49.5" font-family="ArialMT" font-size="10.00">trade_price </text>
<text text-anchor="start" x="59" y="-49.5" font-family="Arial ItalicMT" font-size="10.00" fill="#999999">integer</text>
<text text-anchor="start" x="7" y="-36.5" font-family="ArialMT" font-size="10.00">trade_volume </text>
<text text-anchor="start" x="69" y="-36.5" font-family="Arial ItalicMT" font-size="10.00" fill="#999999">integer</text>
<text text-anchor="start" x="7" y="-23.5" font-family="ArialMT" font-size="10.00">transaction_date </text>
<text text-anchor="start" x="83" y="-23.5" font-family="Arial ItalicMT" font-size="10.00" fill="#999999">date ∗</text>
<text text-anchor="start" x="7" y="-10.5" font-family="ArialMT" font-size="10.00">ups_and_downs </text>
<text text-anchor="start" x="81" y="-10.5" font-family="Arial ItalicMT" font-size="10.00" fill="#999999">string</text>
</g>
<!-- m_Stock -->
<g id="node2" class="node">
<title>m_Stock</title>
<path fill="none" stroke="black" d="M110,-288.5C110,-288.5 230,-288.5 230,-288.5 236,-288.5 242,-294.5 242,-300.5 242,-300.5 242,-332.5 242,-332.5 242,-338.5 236,-344.5 230,-344.5 230,-344.5 110,-344.5 110,-344.5 104,-344.5 98,-338.5 98,-332.5 98,-332.5 98,-300.5 98,-300.5 98,-294.5 104,-288.5 110,-288.5"/>
<text text-anchor="start" x="154" y="-331.7" font-family="Arial BoldMT" font-size="11.00">Stock</text>
<polyline fill="none" stroke="black" points="98,-324.5 242,-324.5"/>
<text text-anchor="start" x="105" y="-311.5" font-family="ArialMT" font-size="10.00">deleted_at </text>
<text text-anchor="start" x="154" y="-311.5" font-family="Arial ItalicMT" font-size="10.00" fill="#999999">datetime (6,0)</text>
<text text-anchor="start" x="105" y="-298.5" font-family="ArialMT" font-size="10.00">name </text>
<text text-anchor="start" x="133" y="-298.5" font-family="Arial ItalicMT" font-size="10.00" fill="#999999">string ∗</text>
</g>
<!-- m_Stock&#45;&gt;m_DailyQuote -->
<g id="edge1" class="edge">
<title>m_Stock&#45;&gt;m_DailyQuote</title>
<path fill="none" stroke="black" d="M157.13,-288.79C151.58,-277.29 144.65,-262.92 137.2,-247.46"/>
<polygon fill="black" stroke="black" points="140.17,-246.35 133.42,-239.61 134.49,-249.09 140.17,-246.35"/>
</g>
<!-- m_ThreeLegalPerson -->
<g id="node3" class="node">
<title>m_ThreeLegalPerson</title>
<path fill="none" stroke="black" d="M193.5,-65.5C193.5,-65.5 334.5,-65.5 334.5,-65.5 340.5,-65.5 346.5,-71.5 346.5,-77.5 346.5,-77.5 346.5,-161.5 346.5,-161.5 346.5,-167.5 340.5,-173.5 334.5,-173.5 334.5,-173.5 193.5,-173.5 193.5,-173.5 187.5,-173.5 181.5,-167.5 181.5,-161.5 181.5,-161.5 181.5,-77.5 181.5,-77.5 181.5,-71.5 187.5,-65.5 193.5,-65.5"/>
<text text-anchor="start" x="217" y="-160.7" font-family="Arial BoldMT" font-size="11.00">ThreeLegalPerson</text>
<polyline fill="none" stroke="black" points="181.5,-153.5 346.5,-153.5"/>
<text text-anchor="start" x="189" y="-140.5" font-family="ArialMT" font-size="10.00">credit_excess_shares </text>
<text text-anchor="start" x="288" y="-140.5" font-family="Arial ItalicMT" font-size="10.00" fill="#999999">integer</text>
<text text-anchor="start" x="189" y="-127.5" font-family="ArialMT" font-size="10.00">deleted_at </text>
<text text-anchor="start" x="238" y="-127.5" font-family="Arial ItalicMT" font-size="10.00" fill="#999999">datetime (6,0)</text>
<text text-anchor="start" x="189" y="-114.5" font-family="ArialMT" font-size="10.00">overseas_shares </text>
<text text-anchor="start" x="267" y="-114.5" font-family="Arial ItalicMT" font-size="10.00" fill="#999999">integer</text>
<text text-anchor="start" x="189" y="-101.5" font-family="ArialMT" font-size="10.00">proprietary_excess_shares </text>
<text text-anchor="start" x="310" y="-101.5" font-family="Arial ItalicMT" font-size="10.00" fill="#999999">integer</text>
<text text-anchor="start" x="189" y="-88.5" font-family="ArialMT" font-size="10.00">sum_of_excess_shares </text>
<text text-anchor="start" x="296" y="-88.5" font-family="Arial ItalicMT" font-size="10.00" fill="#999999">integer</text>
<text text-anchor="start" x="189" y="-75.5" font-family="ArialMT" font-size="10.00">transaction_date </text>
<text text-anchor="start" x="265" y="-75.5" font-family="Arial ItalicMT" font-size="10.00" fill="#999999">date ∗</text>
</g>
<!-- m_Stock&#45;&gt;m_ThreeLegalPerson -->
<g id="edge2" class="edge">
<title>m_Stock&#45;&gt;m_ThreeLegalPerson</title>
<path fill="none" stroke="black" d="M182.87,-288.79C195.98,-261.6 216.77,-218.47 234.03,-182.68"/>
<polygon fill="black" stroke="black" points="236.83,-184.11 237.9,-174.64 231.16,-181.38 236.83,-184.11"/>
</g>
<!-- m_User -->
<g id="node4" class="node">
<title>m_User</title>
<path fill="none" stroke="black" d="M283,-275.5C283,-275.5 403,-275.5 403,-275.5 409,-275.5 415,-281.5 415,-287.5 415,-287.5 415,-345.5 415,-345.5 415,-351.5 409,-357.5 403,-357.5 403,-357.5 283,-357.5 283,-357.5 277,-357.5 271,-351.5 271,-345.5 271,-345.5 271,-287.5 271,-287.5 271,-281.5 277,-275.5 283,-275.5"/>
<text text-anchor="start" x="329" y="-344.7" font-family="Arial BoldMT" font-size="11.00">User</text>
<polyline fill="none" stroke="black" points="271,-337.5 415,-337.5"/>
<text text-anchor="start" x="278" y="-324.5" font-family="ArialMT" font-size="10.00">account </text>
<text text-anchor="start" x="316" y="-324.5" font-family="Arial ItalicMT" font-size="10.00" fill="#999999">string ∗ U</text>
<text text-anchor="start" x="278" y="-311.5" font-family="ArialMT" font-size="10.00">data </text>
<text text-anchor="start" x="300" y="-311.5" font-family="Arial ItalicMT" font-size="10.00" fill="#999999">string</text>
<text text-anchor="start" x="278" y="-298.5" font-family="ArialMT" font-size="10.00">name </text>
<text text-anchor="start" x="306" y="-298.5" font-family="Arial ItalicMT" font-size="10.00" fill="#999999">string</text>
<text text-anchor="start" x="278" y="-285.5" font-family="ArialMT" font-size="10.00">password </text>
<text text-anchor="start" x="324" y="-285.5" font-family="Arial ItalicMT" font-size="10.00" fill="#999999">string</text>
</g>
</g>
</svg>
